<svg width="6765" height="4281" viewBox="0 0 6765 4281" fill="none" xmlns="http://www.w3.org/2000/svg">
<g clip-path="url(#clip0_305_382)">
<path d="M5664.31 335.155H6.2998C14.2913 289.841 29.8983 246.971 51.7109 208.144C121.38 84.0472 254.23 0 406.448 0H5264.16C5416.29 0 5549.23 84.0472 5618.81 208.144C5640.62 246.971 5656.32 289.841 5664.31 335.155Z" fill="#F2F2F2"/>
<rect x="6" width="5665" height="4254" rx="408" fill="white"/>
<path d="M6765 4265.35C6765 4271.55 6760.02 4276.54 6753.81 4276.54H4428.8C4422.59 4276.54 4417.61 4271.55 4417.61 4265.35C4417.61 4262.34 4418.74 4259.71 4420.62 4257.73H5264.16C5282.12 4257.73 5299.7 4256.51 5317 4254.16H6753.81C6760.02 4254.16 6765 4259.14 6765 4265.35Z" fill="#3F3D56"/>
<path d="M4157.72 1984.98H1512.82C1488.24 1984.98 1468.24 1959.68 1468.24 1928.57C1468.24 1897.47 1488.24 1872.17 1512.82 1872.17H4157.72C4182.31 1872.17 4202.3 1897.47 4202.3 1928.57C4202.3 1959.68 4182.31 1984.98 4157.72 1984.98Z" fill="#E6E6E6"/>
<path d="M5664.31 335.155C5656.32 289.841 5640.62 246.971 5618.81 208.144C5549.23 84.0472 5416.29 0 5264.16 0H406.448C254.23 0 121.38 84.0472 51.7108 208.144C29.8982 246.971 14.2912 289.841 6.2997 335.155C2.16283 358.282 0 382.067 0 406.416V3870.12C0 4094.25 182.304 4276.54 406.448 4276.54H5264.16C5310.61 4276.54 5355.36 4268.64 5397.01 4254.16C5556.09 4199.07 5670.61 4047.71 5670.61 3870.12V406.416C5670.61 382.161 5668.45 358.282 5664.31 335.155ZM5651.81 3870.12C5651.81 4066.23 5506.08 4228.4 5317 4254.16C5299.7 4256.51 5282.12 4257.73 5264.16 4257.73H983.822C450.825 4257.73 18.8039 3825.65 18.8039 3292.7V406.416C18.8039 382.067 21.0603 358.282 25.3854 335.155C33.8474 289.464 50.3008 246.689 73.3353 208.144C140.935 94.7648 264.854 18.8025 406.448 18.8025H5264.16C5405.76 18.8025 5529.67 94.7648 5597.27 208.144C5620.31 246.689 5636.76 289.464 5645.22 335.155C5649.55 358.282 5651.81 382.067 5651.81 406.416V3870.12Z" fill="#FFB400"/>
<path d="M5414.84 2031.42L5383.03 1914.77L5526.19 1861.75L5542.1 1967.79L5414.84 2031.42Z" fill="#FFB6B6"/>
<path opacity="0.1" d="M5414.84 2031.42L5383.03 1914.77L5467.34 1879.21L5441.14 2016.73L5414.84 2031.42Z" fill="black"/>
<path d="M4995.73 3031.13C4968.39 3014.86 4966.94 2966.84 4992.51 2923.87C5003.7 2905.06 5018.22 2890.34 5033.29 2881.09L5048.3 2856.56L5238.24 2516.09C5238.24 2516.09 5321.39 2194.98 5355.24 2156.15C5389.08 2117.32 5438.03 2126.47 5438.03 2126.47L5481.44 2165.03L5326.5 2619.84L5135.3 2889.07L5109.68 2926.54C5108.75 2944.2 5102.73 2963.97 5091.54 2982.78C5065.97 3025.75 5023.08 3047.4 4995.73 3031.13Z" fill="#FFB6B6"/>
<path d="M5407.01 1998.1C5407.01 1998.1 5467.42 1995.76 5505.54 2042.69C5543.66 2089.62 5343.97 2618.51 5343.97 2618.51L5181.32 2612.75L5407.01 1998.1Z" fill="#133C55"/>
<path d="M5422.79 1933.33C5504.79 1933.33 5571.27 1866.86 5571.27 1784.87C5571.27 1702.88 5504.79 1636.41 5422.79 1636.41C5340.8 1636.41 5274.32 1702.88 5274.32 1784.87C5274.32 1866.86 5340.8 1933.33 5422.79 1933.33Z" fill="#FFB6B6"/>
<path d="M5075.48 3940.19L4974.73 4189.4L4916.4 4131.07L4895.19 4019.73L4980.03 3913.68L5075.48 3940.19Z" fill="#FFB6B6"/>
<path d="M6019.33 3850.06L6120.08 3966.71L6072.36 4062.14L5966.31 4046.24L5913.28 3897.78L6019.33 3850.06Z" fill="#FFB6B6"/>
<path d="M5348.56 2458.24L5335.3 2672.98L5664.06 2614.66L5642.85 2482.1L5348.56 2458.24Z" fill="#FFB6B6"/>
<path d="M5332.65 2675.63L5664.06 2566.94C5664.06 2566.94 5786.02 2810.84 5653.46 2964.6C5520.89 3118.36 5080.78 3993.22 5080.78 3993.22L4948.21 3929.59L5139.11 3372.86L5351.21 2858.55L5332.65 2675.63Z" fill="#FFB400"/>
<path d="M5653.46 2874.46L5780.72 3431.19L6045.85 3860.66L5907.98 3940.19L5536.8 3431.19L5414.84 3038.83L5653.46 2874.46Z" fill="#FFB400"/>
<path d="M4847.47 3998.52H4755.63C4755.63 3998.52 4648.47 3956.1 4623.36 3998.52C4598.25 4040.94 4735.41 4161.24 4735.41 4161.24C4735.41 4161.24 4927 4268.93 4953.52 4263.63C4980.03 4258.32 4990.64 4194.7 4990.64 4194.7L5022.45 4120.47L4974.73 4136.37C4974.73 4136.37 4911.1 4099.26 4927 4035.63L4847.47 3998.52Z" fill="#2F2E41"/>
<path d="M6098.87 3982.61V3929.59L6160.52 3982.61C6160.52 3982.61 6263.25 4019.73 6183.71 4099.26C6104.17 4178.79 6003.42 4263.63 6003.42 4263.63C6003.42 4263.63 5844.35 4306.04 5833.74 4258.32C5823.14 4210.61 5833.74 4191.3 5833.74 4191.3L5892.07 4162.89L5945.1 4025.03L6029.94 4035.63L6098.87 3982.61Z" fill="#2F2E41"/>
<path d="M5467.87 1814.03L5420.14 1808.73L5332.65 1721.24C5332.65 1721.24 5253.11 1763.66 5253.11 1731.85C5253.11 1583.39 5343.26 1588.69 5417.49 1578.08C5491.73 1567.48 5483.77 1564.83 5507.64 1604.6C5518.55 1622.78 5558.01 1633.76 5558.01 1633.76C5558.01 1633.76 5632.25 1533.02 5669.36 1654.97C5706.48 1776.92 5658.76 2153.37 5695.88 2185.18C5732.99 2216.99 5543.47 2248.76 5564 2124.18C5584.52 1999.61 5621.64 1808.73 5600.43 1766.31C5579.22 1723.89 5573.92 1734.5 5573.92 1734.5C5600.2 1723.77 5617.38 1912.79 5518.27 1922.04L5515.59 1829.94C5515.59 1829.94 5499.68 1782.22 5467.87 1814.03Z" fill="#2F2E41"/>
<path d="M5401.58 1996.95L5560.66 1933.33L5772.76 2569.59L5336.36 2553.69L5297.07 2363.79C5297.07 2363.79 5258.7 2264.95 5290.52 2206.63C5322.33 2148.31 5401.58 1996.95 5401.58 1996.95Z" fill="#133C55"/>
<path d="M5815.53 3062.77C5783.82 3065.49 5754.66 3027.32 5750.38 2977.5C5748.5 2955.69 5751.71 2935.27 5758.57 2918.97L5756.47 2890.29L5712.28 2502.94C5712.28 2502.94 5630.03 2186.09 5634.9 2134.81C5639.76 2083.53 5647.45 2069.92 5647.45 2069.92L5705.2 2075.94L5844.48 2535.78L5846.11 2865.99L5847.13 2911.37C5856.67 2926.26 5863.31 2945.83 5865.18 2967.64C5869.46 3017.46 5847.23 3060.05 5815.53 3062.77Z" fill="#FFB6B6"/>
<path d="M5547.4 1983.7C5547.4 1983.7 5595.13 1946.58 5653.46 1962.49C5711.78 1978.4 5857.9 2524.52 5857.9 2524.52L5722.39 2614.66L5547.4 1983.7Z" fill="#133C55"/>
<path d="M2784.92 2901.6H2148.82C2110 2901.6 2078.41 2870.02 2078.41 2831.2V2767.59C2078.41 2728.77 2110 2697.2 2148.82 2697.2H2784.92C2823.74 2697.2 2855.32 2728.77 2855.32 2767.59V2831.2C2855.32 2870.02 2823.73 2901.6 2784.92 2901.6Z" fill="#133C55"/>
<path d="M5229.43 822.714H4593.33C4554.51 822.714 4522.92 791.132 4522.92 752.315V688.701C4522.92 649.884 4554.51 618.311 4593.33 618.311H5229.43C5268.25 618.311 5299.83 649.884 5299.83 688.701V752.315C5299.83 791.132 5268.25 822.714 5229.43 822.714Z" fill="#133C55"/>
<path d="M3728.57 2906.3H3092.47C3051.06 2906.3 3017.37 2872.61 3017.37 2831.2V2767.59C3017.37 2726.18 3051.06 2692.5 3092.47 2692.5H3728.57C3769.98 2692.5 3803.67 2726.18 3803.67 2767.59V2831.2C3803.67 2872.61 3769.98 2906.3 3728.57 2906.3ZM3092.47 2711.3C3061.43 2711.3 3036.17 2736.55 3036.17 2767.59V2831.2C3036.17 2862.24 3061.43 2887.5 3092.47 2887.5H3728.57C3759.61 2887.5 3784.87 2862.24 3784.87 2831.2V2767.59C3784.87 2736.55 3759.61 2711.3 3728.57 2711.3H3092.47Z" fill="#133C55"/>
<path d="M4508.82 1693.54H1161.72C1130.61 1693.54 1105.31 1668.24 1105.31 1637.13C1105.31 1606.03 1130.61 1580.73 1161.72 1580.73H4508.82C4539.93 1580.73 4565.23 1606.03 4565.23 1637.13C4565.23 1668.24 4539.93 1693.54 4508.82 1693.54Z" fill="#E6E6E6"/>
<path d="M948.565 776.92H525.476C494.369 776.92 469.064 751.617 469.064 720.512C469.064 689.407 494.369 664.104 525.476 664.104H948.565C979.672 664.104 1004.98 689.407 1004.98 720.512C1004.98 751.617 979.672 776.92 948.565 776.92Z" fill="#E6E6E6"/>
<path d="M3477.69 776.92H3054.61C3023.5 776.92 2998.19 751.617 2998.19 720.512C2998.19 689.407 3023.5 664.104 3054.61 664.104H3477.69C3508.8 664.104 3534.11 689.407 3534.11 720.512C3534.11 751.617 3508.8 776.92 3477.69 776.92Z" fill="#E6E6E6"/>
<path d="M4276.86 776.92H3853.77C3822.67 776.92 3797.36 751.617 3797.36 720.512C3797.36 689.407 3822.67 664.104 3853.77 664.104H4276.86C4307.97 664.104 4333.27 689.407 4333.27 720.512C4333.27 751.617 4307.97 776.92 4276.86 776.92Z" fill="#E6E6E6"/>
<path d="M3766.07 2276.42H1904.48C1873.37 2276.42 1848.07 2251.12 1848.07 2220.01C1848.07 2188.91 1873.37 2163.6 1904.48 2163.6H3766.07C3797.17 2163.6 3822.48 2188.91 3822.48 2220.01C3822.48 2251.12 3797.17 2276.42 3766.07 2276.42Z" fill="#E6E6E6"/>
<path d="M3847.19 3510.39H1823.36C1804.55 3510.39 1789.25 3495.09 1789.25 3476.28C1789.25 3457.47 1804.55 3442.18 1823.36 3442.18H3847.19C3866 3442.18 3881.3 3457.47 3881.3 3476.28C3881.3 3495.09 3866 3510.39 3847.19 3510.39Z" fill="#E6E6E6"/>
<path d="M3866.02 201.147H1842.19C1823.39 201.147 1808.09 185.848 1808.09 167.04C1808.09 148.233 1823.39 132.934 1842.19 132.934H3866.02C3884.83 132.934 3900.13 148.233 3900.13 167.04C3900.13 185.848 3884.83 201.147 3866.02 201.147Z" fill="white"/>
</g>
<defs>
<clipPath id="clip0_305_382">
<rect width="6765" height="4281" fill="white"/>
</clipPath>
</defs>
</svg>
